<svg xmlns="http://www.w3.org/2000/svg" viewBox="0 0 1760 273.54"><title>customer_journey</title><g id="Layer_9" data-name="Layer 9"><polygon points="480 53.54 230 53.54 0 53.54 20 163.54 0 273.54 230 273.54 480 273.54 510 163.54 480 53.54" fill="#2ab7ea"/><polygon points="1230 53.54 980 53.54 730 53.54 500 53.54 520 163.54 500 273.54 730 273.54 980 273.54 1230 273.54 1260 163.54 1230 53.54" fill="#2ab7ea"/><polygon points="1730 53.54 1480 53.54 1250 53.54 1270 163.54 1250 273.54 1480 273.54 1730 273.54 1760 163.54 1730 53.54" fill="#2ab7ea"/></g><g id="Layer_10" data-name="Layer 10"><polygon points="250 153.54 260 163.54 250 173.54 250 153.54" fill="#1c1f3c"/><polygon points="750 153.54 760 163.54 750 173.54 750 153.54" fill="#1c1f3c"/><polygon points="1000 153.54 1010 163.54 1000 173.54 1000 153.54" fill="#1c1f3c"/><polygon points="1500 153.54 1510 163.54 1500 173.54 1500 153.54" fill="#1c1f3c"/><line x1="31" y1="163.54" x2="1731" y2="163.54" fill="#1c1f3c" stroke="#000" stroke-miterlimit="10"/></g><g id="Layer_2" data-name="Layer 2"><path d="M330,550a100,100,0,1,0-196.67,25.67A35,35,0,0,1,162.51,560l4.5-5.5a35,35,0,1,1,30.32,3.56l.18,1.94h11.66a35,35,0,0,1,34.91,32.5h.09V649A100,100,0,0,0,330,550Z" transform="translate(-100 -386.46)" fill="#1c1f3c"/><polygon points="174 183.54 174 213.54 164 213.54 164 203.54 164 183.54 174 183.54" fill="#2ab7ea"/><polygon points="213.75 210.54 213.75 134.54 114 96.54 114 172.54 213.75 210.54" fill="#2ab7ea"/><polygon points="204 199.4 204 138.26 123.75 107.69 123.75 168.83 204 199.4" fill="#fff"/><polygon points="150 143.54 150 163.54 170 153.54 150 143.54" fill="#1c1f3c"/><rect x="170" y="143.54" width="10" height="20" fill="#1c1f3c"/><path d="M244.14,593.61a35,35,0,0,0-35-33.61H197.51l-.18-1.94A35,35,0,1,0,167,554.5l-4.5,5.5a35,35,0,0,0-29.18,15.67,99.13,99.13,0,0,0,6.15,16.83h104.6Z" transform="translate(-100 -386.46)" fill="#e51147"/><path d="M244.14,593.61c0,.46,0,.92,0,1.39C244.17,594.53,244.16,594.07,244.14,593.61Z" transform="translate(-100 -386.46)" fill="#e51147"/><path d="M170,630h39.18a35,35,0,0,0,35-35c0-.47,0-.93,0-1.39l-.06-1.11H139.48A100.41,100.41,0,0,0,170,630Z" transform="translate(-100 -386.46)" fill="#e51147"/><path d="M244.17,592.5h-.09c0,.83.09,1.66.09,2.5Z" transform="translate(-100 -386.46)" fill="#e51147"/><path d="M209.17,630H170a99.55,99.55,0,0,0,60,20,101.87,101.87,0,0,0,14.17-1V595A35,35,0,0,1,209.17,630Z" transform="translate(-100 -386.46)" fill="#e51147"/></g><g id="Layer_3" data-name="Layer 3"><circle cx="380" cy="163.54" r="100" fill="#1c1f3c"/><rect x="305" y="113.54" width="150" height="100" fill="#fff"/><rect x="387" y="140.54" width="52" height="54" rx="9.83" ry="9.83" fill="#e51147"/><rect x="312" y="120.54" width="136" height="4" rx="2" ry="2" fill="#1c1f3c"/><rect x="319" y="133.54" width="59" height="7" rx="3.5" ry="3.5" fill="#1c1f3c"/><rect x="319" y="148.54" width="59" height="46" rx="3.5" ry="3.5" fill="#1c1f3c"/><text transform="translate(785.86 33.84)" font-size="40.26" fill="#fff" font-family="BookmanOldStyle, Bookman Old Style">Decision</text><text transform="translate(144.92 33.84)" font-size="40.26" fill="#fff" font-family="BookmanOldStyle, Bookman Old Style">Awareness</text><text transform="translate(1398.95 33.84)" font-size="40.26" fill="#fff" font-family="BookmanOldStyle, Bookman Old Style">Promotion</text></g><g id="Layer_4" data-name="Layer 4"><circle cx="630" cy="163.54" r="100" fill="#1c1f3c"/><path d="M670,540v34a12,12,0,0,0,12,12h96a12,12,0,0,0,12-12V540l-60,30Z" transform="translate(-100 -386.46)" fill="#fff"/><path d="M778,514H682a12,12,0,0,0-12,12v4l60,30,60-30v-4A12,12,0,0,0,778,514Z" transform="translate(-100 -386.46)" fill="#fff"/><polygon points="657 180.54 657 227.54 666 218.54 672 233.54 683 228.54 677 214.54 690 214.54 657 180.54" fill="#fff"/></g><g id="Layer_5" data-name="Layer 5"><path d="M904,615a99.78,99.78,0,0,0,76,35c1,0,2,0,3,0V615Z" transform="translate(-100 -386.46)" fill="#e51147"/><path d="M997,554.91a17.41,17.41,0,0,1,17-16.31h9.26V537a19.92,19.92,0,1,1,16.36-.32v1.92h9.26a17.41,17.41,0,0,1,17,16.31l0,0-6.41,55.59A100,100,0,1,0,886,584.19V571l0,0A24.5,24.5,0,0,1,910,548h13v-2.25a28,28,0,1,1,23-.45V548h13A24.5,24.5,0,0,1,983,571l0,0v79a99.49,99.49,0,0,0,20.86-2.83L997,555Z" transform="translate(-100 -386.46)" fill="#1c1f3c"/><path d="M1059.59,610.54,1066,555l0,0a17.41,17.41,0,0,0-17-16.31h-9.26v-1.92a19.91,19.91,0,1,0-16.36.32v1.6h-9.26a17.41,17.41,0,0,0-17,16.31l0,0,6.86,92.17A100,100,0,0,0,1059.59,610.54Z" transform="translate(-100 -386.46)" fill="#2ab7ea"/><polygon points="935.11 173.88 939.68 152.13 923.32 152.13 927.89 173.88 931.5 156.71 935.11 173.88" fill="#fff"/><polygon points="935.11 173.88 931.5 156.71 927.89 173.88 931.5 191.04 935.11 173.88" fill="#e51147"/><path d="M983,571l0,0A24.5,24.5,0,0,0,959,548H946v-2.7a28,28,0,1,0-23,.45V548H910A24.5,24.5,0,0,0,886.05,571l0,0v12.57A99.72,99.72,0,0,0,904.55,615H983Z" transform="translate(-100 -386.46)" fill="#e51147"/></g><g id="Layer_6" data-name="Layer 6"><circle cx="1130" cy="163.54" r="100" fill="#1c1f3c"/><rect x="1070" y="103.54" width="120" height="120" fill="#fff"/><rect x="1080" y="113.54" width="100" height="10" rx="5" ry="5" fill="#1c1f3c"/><rect x="1080" y="133.54" width="100" height="10" rx="5" ry="5" fill="#1c1f3c"/><rect x="1081.75" y="163.54" width="48.25" height="10" rx="5" ry="5" fill="#1c1f3c"/><rect x="1080" y="211.67" width="100" height="1.87" fill="#1c1f3c"/><path d="M1187.17,594.83l11-17.51a1.25,1.25,0,0,1,2.29.9l-2.8,15.14a1.25,1.25,0,0,0,1.23,1.47h1.91a1.23,1.23,0,0,0,1.15-.77l1.91-4.65a1.25,1.25,0,0,1,2.31,0l1.53,3.74a1.24,1.24,0,0,0,2,.43l5.18-4.89a1.25,1.25,0,0,1,2.1,1l-.26,2.2a1.24,1.24,0,0,0,2,1.15l2.75-2.06a1.25,1.25,0,0,1,1.69.18l3.74,4.31a1.24,1.24,0,0,0,1.23.39l6.68-1.56.17-.05,8-3.07c.25-.1.51-.11,2.28.35l18.61,4.9" transform="translate(-100 -386.46)" fill="none" stroke="#1c1f3c" stroke-miterlimit="10" stroke-width="2"/><polygon points="1185.48 193.91 1173.2 206.19 1164.06 209.34 1167.13 200.13 1179.42 187.84 1185.56 181.7 1191.7 187.84 1185.48 193.91" fill="#1c1f3c" stroke="#1c1f3c" stroke-miterlimit="10" stroke-width="2"/></g><g id="Layer_8" data-name="Layer 8"><circle cx="1380" cy="163.54" r="100" fill="#1c1f3c"/><circle cx="1423" cy="123.54" r="15" fill="#fff"/><circle cx="1423" cy="203.54" r="15" fill="#fff"/><circle cx="1333" cy="163.54" r="15" fill="#fff"/><polyline points="1423 203.54 1333 163.54 1423 123.54" fill="none" stroke="#fff" stroke-miterlimit="10" stroke-width="9"/></g><g id="Layer_7" data-name="Layer 7"><circle cx="1630" cy="163.54" r="100" fill="#1c1f3c"/><path d="M1673,590.79V553.32a4.7,4.7,0,0,1,4.4-4.69l20.18-1.3a4.69,4.69,0,0,0,3.59-2.05l18.1-26.67a4.75,4.75,0,0,1,.57-.69l11.06-11.06a4.68,4.68,0,0,0,1.3-2.47c1-5.09,4-22,2.83-22-1.36,0,20.18-5.39,16,22.78a4.66,4.66,0,0,1-.64,1.77c-1.56,2.56-6.45,10.9-7.85,17.35a4.71,4.71,0,0,0,4.55,5.7l26.64.27a4.73,4.73,0,0,1,3.7,1.87l5.28,7a4.69,4.69,0,0,1,.25,5.3l-2.31,3.76a4.7,4.7,0,0,0,0,4.93l.38.61a9.41,9.41,0,0,1-.91,11.09l-.43.49a4.71,4.71,0,0,0-.77,4.94l1.69,3.94a4.72,4.72,0,0,1-1.07,5.25l-3.84,3.67a4.71,4.71,0,0,0-1.41,4l.29,2.15a4.68,4.68,0,0,1-2.21,4.65l-12.12,7.38a4.61,4.61,0,0,1-2.4.68c-7.48.07-44.9.23-50.19-3.23a4.74,4.74,0,0,0-2.16-.72l-28.23-2.56A4.71,4.71,0,0,1,1673,590.79Z" transform="translate(-100 -386.46)" fill="#fff"/></g></svg>
